<?xml version="1.0" encoding="UTF-8" standalone="no"?>
<!-- Created with Inkscape (http://www.inkscape.org/) -->

<svg
   width="512"
   height="512"
   viewBox="0 0 512 512"
   version="1.1"
   id="svg1"
   xml:space="preserve"
   inkscape:version="1.3.2 (1:1.3.2+202311252150+091e20ef0f)"
   sodipodi:docname="icon.svg"
   xmlns:inkscape="http://www.inkscape.org/namespaces/inkscape"
   xmlns:sodipodi="http://sodipodi.sourceforge.net/DTD/sodipodi-0.dtd"
   xmlns="http://www.w3.org/2000/svg"
   xmlns:svg="http://www.w3.org/2000/svg"><sodipodi:namedview
     id="namedview1"
     pagecolor="#ffffff"
     bordercolor="#666666"
     borderopacity="1.0"
     inkscape:showpageshadow="2"
     inkscape:pageopacity="0.0"
     inkscape:pagecheckerboard="0"
     inkscape:deskcolor="#d1d1d1"
     inkscape:document-units="px"
     inkscape:zoom="0.78997086"
     inkscape:cx="-114.56119"
     inkscape:cy="274.06074"
     inkscape:window-width="1920"
     inkscape:window-height="995"
     inkscape:window-x="0"
     inkscape:window-y="0"
     inkscape:window-maximized="1"
     inkscape:current-layer="layer1" /><defs
     id="defs1" /><g
     inkscape:label="Calque 1"
     inkscape:groupmode="layer"
     id="layer1"><rect
       style="fill:#2e2e2e;stroke-width:5;stroke-linejoin:bevel;stroke-miterlimit:1;paint-order:markers stroke fill;fill-opacity:1"
       id="rect1"
       width="512"
       height="512"
       x="0"
       y="0" /><rect
       style="fill:#8bc72c;fill-opacity:1;stroke-width:17.1483;stroke-linejoin:bevel;stroke-miterlimit:1;paint-order:markers stroke fill"
       id="rect2"
       width="511.99997"
       height="65.601395"
       x="2.2479029e-05"
       y="248" /><path
       id="rect3"
       style="fill:#ffffff;fill-opacity:1;stroke-width:6.77761;stroke-linejoin:bevel;stroke-miterlimit:1;paint-order:markers stroke fill"
       d="m 55.367188,48.059645 v 61.464845 h 65.941402 v 103.95898 h 54.01758 V 109.52449 h 53.66602 v 103.95898 h 54.01562 V 109.52449 h 32.79688 v 103.95898 h 54.01562 V 109.52449 h 32.79688 v 103.95898 h 54.01562 V 109.52449 48.059645 Z" /><path
       id="rect9"
       style="fill:#ffffff;fill-opacity:1;stroke-width:3.5133;stroke-linejoin:bevel;stroke-miterlimit:1;paint-order:markers stroke fill"
       d="m 51.759771,360.47936 v 24.1319 16.94474 24.13362 h 38.654968 v 16.94474 H 51.759771 v 24.1319 H 114.54836 V 442.63436 425.68962 401.556 H 75.893396 v -16.94474 h 38.654964 v -24.1319 z m 77.309939,0 v 106.2869 h 24.13362 v -41.07664 h 25.4396 v 41.07664 h 24.13189 V 360.47936 H 178.64293 V 401.556 h -25.4396 v -41.07664 z m 88.22818,0 v 106.2869 h 24.13363 v -41.07664 h 24.28757 v 41.07664 h 24.13363 v -106.2869 h -24.13363 -24.28757 z m 85.92761,0 v 106.2869 h 24.1319 v -27.3631 l 27.36308,27.3631 h 21.05984 v -17.0641 l -24.01427,-24.01254 h 24.01427 V 360.47936 H 351.6467 327.3574 Z m 85.92587,0 v 106.2869 h 10.91653 13.21709 43.34782 v -24.1319 H 413.28499 V 425.68962 H 437.5743 V 401.556 h -24.28931 v -16.94474 h 43.34782 v -24.1319 h -43.34782 z m -147.71985,24.1319 h 24.28757 V 401.556 h -24.28757 z m 85.92588,0 h 24.2893 V 401.556 h -24.2893 z" /></g></svg>
